<svg xmlns="http://www.w3.org/2000/svg" width="256" height="256" viewBox="0 0 256 256"><defs><linearGradient id="g" x1="0" y1="0" x2="1" y2="1"><stop stop-color="#22d3ee"/><stop offset="1" stop-color="#34d399"/></linearGradient></defs><rect width="256" height="256" rx="36" fill="#0b1220"/><rect x="16" y="16" width="224" height="224" rx="28" fill="url(#g)" opacity="0.2"/><text x="128" y="94" text-anchor="middle" font-size="64" font-family="Arial" fill="#e5e7eb">A</text><path d="M128 112c22 0 40 18 40 40 0 11-4 21-11 29h-18c8-6 13-16 13-29 0-13-11-24-24-24s-24 11-24 24c0 13 5 23 13 29H99c-7-8-11-18-11-29 0-22 18-40 40-40z" fill="#e5e7eb"/><rect x="120" y="182" width="16" height="28" rx="6" fill="#e5e7eb"/></svg>
